<svg width="19" height="19" viewBox="0 0 19 19" fill="none" xmlns="http://www.w3.org/2000/svg">
<path d="M1.98583 0.663269H0.263331C0.117897 0.663269 0 0.777943 0 0.919401V2.59481C0 2.73626 0.117897 2.85094 0.263331 2.85094H1.98583C2.13126 2.85094 2.24916 2.73626 2.24916 2.59481V0.919401C2.24916 0.777943 2.13126 0.663269 1.98583 0.663269Z" fill="#FCFCFC"/>
<path d="M5.09463 2.85068H3.4186C3.273 2.85068 3.15527 2.73617 3.15527 2.59454V0.917631C3.15527 0.776005 3.273 0.661499 3.4186 0.661499H5.09463C5.26502 0.661499 5.40443 0.797098 5.40443 0.962831V2.54784C5.40443 2.71357 5.26502 2.84917 5.09463 2.84917V2.85068Z" fill="#FCFCFC"/>
<path d="M8.29491 0.663025H6.57241C6.42698 0.663025 6.30908 0.777699 6.30908 0.919157V2.59456C6.30908 2.73602 6.42698 2.85069 6.57241 2.85069H8.29491C8.44034 2.85069 8.55824 2.73602 8.55824 2.59456V0.919157C8.55824 0.777699 8.44034 0.663025 8.29491 0.663025Z" fill="#FCFCFC"/>
<path d="M11.4519 0.663025H9.7294C9.58396 0.663025 9.46606 0.777699 9.46606 0.919157V2.59456C9.46606 2.73602 9.58396 2.85069 9.7294 2.85069H11.4519C11.5973 2.85069 11.7152 2.73602 11.7152 2.59456V0.919157C11.7152 0.777699 11.5973 0.663025 11.4519 0.663025Z" fill="#FCFCFC"/>
<path d="M14.615 3.71246H12.8925C12.747 3.71246 12.6292 3.82714 12.6292 3.9686V5.644C12.6292 5.78546 12.747 5.90013 12.8925 5.90013H14.615C14.7604 5.90013 14.8783 5.78546 14.8783 5.644V3.9686C14.8783 3.82714 14.7604 3.71246 14.615 3.71246Z" fill="#FCFCFC"/>
<path d="M11.4519 3.71246H9.7294C9.58396 3.71246 9.46606 3.82714 9.46606 3.9686V5.644C9.46606 5.78546 9.58396 5.90013 9.7294 5.90013H11.4519C11.5973 5.90013 11.7152 5.78546 11.7152 5.644V3.9686C11.7152 3.82714 11.5973 3.71246 11.4519 3.71246Z" fill="#FCFCFC"/>
<path d="M8.29491 3.71246H6.57241C6.42698 3.71246 6.30908 3.82714 6.30908 3.9686V5.644C6.30908 5.78546 6.42698 5.90013 6.57241 5.90013H8.29491C8.44034 5.90013 8.55824 5.78546 8.55824 5.644V3.9686C8.55824 3.82714 8.44034 3.71246 8.29491 3.71246Z" fill="#FCFCFC"/>
<path d="M3.46507 3.71246H5.1411C5.2867 3.71246 5.40443 3.82697 5.40443 3.9686V5.64551C5.40443 5.78713 5.2867 5.90164 5.1411 5.90164H3.46507C3.29468 5.90164 3.15527 5.76604 3.15527 5.60031V4.0153C3.15527 3.84957 3.29468 3.71397 3.46507 3.71397V3.71246Z" fill="#FCFCFC"/>
<path d="M1.98583 3.71246H0.263331C0.117897 3.71246 0 3.82714 0 3.9686V5.644C0 5.78546 0.117897 5.90013 0.263331 5.90013H1.98583C2.13126 5.90013 2.24916 5.78546 2.24916 5.644V3.9686C2.24916 3.82714 2.13126 3.71246 1.98583 3.71246Z" fill="#FCFCFC"/>
<path d="M1.93936 6.76044H0.309801C0.138703 6.76044 0 6.89535 0 7.06177V8.64678C0 8.8132 0.138703 8.94811 0.309801 8.94811H1.93936C2.11045 8.94811 2.24916 8.8132 2.24916 8.64678V7.06177C2.24916 6.89535 2.11045 6.76044 1.93936 6.76044Z" fill="#FCFCFC"/>
<path d="M5.14281 8.94811H3.46678C3.29639 8.94811 3.15698 8.81251 3.15698 8.64678V7.06177C3.15698 6.89604 3.29639 6.76044 3.46678 6.76044H5.14281C5.28841 6.76044 5.40614 6.87494 5.40614 7.01657V8.69348C5.40614 8.83511 5.28841 8.94961 5.14281 8.94961V8.94811Z" fill="#FCFCFC"/>
<path d="M8.29491 6.76044H6.57241C6.42698 6.76044 6.30908 6.87511 6.30908 7.01657V8.69197C6.30908 8.83343 6.42698 8.94811 6.57241 8.94811H8.29491C8.44034 8.94811 8.55824 8.83343 8.55824 8.69197V7.01657C8.55824 6.87511 8.44034 6.76044 8.29491 6.76044Z" fill="#FCFCFC"/>
<path d="M11.4519 6.76044H9.7294C9.58396 6.76044 9.46606 6.87511 9.46606 7.01657V8.69197C9.46606 8.83343 9.58396 8.94811 9.7294 8.94811H11.4519C11.5973 8.94811 11.7152 8.83343 11.7152 8.69197V7.01657C11.7152 6.87511 11.5973 6.76044 11.4519 6.76044Z" fill="#FCFCFC"/>
<path d="M14.615 6.76044H12.8925C12.747 6.76044 12.6292 6.87511 12.6292 7.01657V8.69197C12.6292 8.83343 12.747 8.94811 12.8925 8.94811H14.615C14.7604 8.94811 14.8783 8.83343 14.8783 8.69197V7.01657C14.8783 6.87511 14.7604 6.76044 14.615 6.76044Z" fill="#FCFCFC"/>
<path d="M17.7702 6.76044H16.0478C15.9023 6.76044 15.7844 6.87511 15.7844 7.01657V8.69197C15.7844 8.83343 15.9023 8.94811 16.0478 8.94811H17.7702C17.9157 8.94811 18.0336 8.83343 18.0336 8.69197V7.01657C18.0336 6.87511 17.9157 6.76044 17.7702 6.76044Z" fill="#FCFCFC"/>
<path d="M17.7702 9.80994H16.0478C15.9023 9.80994 15.7844 9.92461 15.7844 10.0661V11.7415C15.7844 11.8829 15.9023 11.9976 16.0478 11.9976H17.7702C17.9157 11.9976 18.0336 11.8829 18.0336 11.7415V10.0661C18.0336 9.92461 17.9157 9.80994 17.7702 9.80994Z" fill="#FCFCFC"/>
<path d="M14.615 9.80994H12.8925C12.747 9.80994 12.6292 9.92461 12.6292 10.0661V11.7415C12.6292 11.8829 12.747 11.9976 12.8925 11.9976H14.615C14.7604 11.9976 14.8783 11.8829 14.8783 11.7415V10.0661C14.8783 9.92461 14.7604 9.80994 14.615 9.80994Z" fill="#FCFCFC"/>
<path d="M11.4519 9.80994H9.7294C9.58396 9.80994 9.46606 9.92461 9.46606 10.0661V11.7415C9.46606 11.8829 9.58396 11.9976 9.7294 11.9976H11.4519C11.5973 11.9976 11.7152 11.8829 11.7152 11.7415V10.0661C11.7152 9.92461 11.5973 9.80994 11.4519 9.80994Z" fill="#FCFCFC"/>
<path d="M8.29491 9.80994H6.57241C6.42698 9.80994 6.30908 9.92461 6.30908 10.0661V11.7415C6.30908 11.8829 6.42698 11.9976 6.57241 11.9976H8.29491C8.44034 11.9976 8.55824 11.8829 8.55824 11.7415V10.0661C8.55824 9.92461 8.44034 9.80994 8.29491 9.80994Z" fill="#FCFCFC"/>
<path d="M3.46507 9.80994H5.1411C5.2867 9.80994 5.40443 9.92444 5.40443 10.0661V11.743C5.40443 11.8846 5.2867 11.9991 5.1411 11.9991H3.46507C3.29468 11.9991 3.15527 11.8635 3.15527 11.6978V10.1128C3.15527 9.94704 3.29468 9.81144 3.46507 9.81144V9.80994Z" fill="#FCFCFC"/>
<path d="M1.98583 9.80994H0.263331C0.117897 9.80994 0 9.92461 0 10.0661V11.7415C0 11.8829 0.117897 11.9976 0.263331 11.9976H1.98583C2.13126 11.9976 2.24916 11.8829 2.24916 11.7415V10.0661C2.24916 9.92461 2.13126 9.80994 1.98583 9.80994Z" fill="#FCFCFC"/>
<path d="M1.98583 12.8579H0.263331C0.117897 12.8579 0 12.9726 0 13.114V14.7894C0 14.9309 0.117897 15.0456 0.263331 15.0456H1.98583C2.13126 15.0456 2.24916 14.9309 2.24916 14.7894V13.114C2.24916 12.9726 2.13126 12.8579 1.98583 12.8579Z" fill="#FCFCFC"/>
<path d="M5.14281 15.0456H3.46678C3.29639 15.0456 3.15698 14.91 3.15698 14.7442V13.1592C3.15698 12.9935 3.29639 12.8579 3.46678 12.8579H5.14281C5.28841 12.8579 5.40614 12.9724 5.40614 13.114V14.791C5.40614 14.9326 5.28841 15.0471 5.14281 15.0471V15.0456Z" fill="#FCFCFC"/>
<path d="M8.29491 12.8579H6.57241C6.42698 12.8579 6.30908 12.9726 6.30908 13.114V14.7894C6.30908 14.9309 6.42698 15.0456 6.57241 15.0456H8.29491C8.44034 15.0456 8.55824 14.9309 8.55824 14.7894V13.114C8.55824 12.9726 8.44034 12.8579 8.29491 12.8579Z" fill="#FCFCFC"/>
<path d="M11.4519 12.8579H9.7294C9.58396 12.8579 9.46606 12.9726 9.46606 13.114V14.7894C9.46606 14.9309 9.58396 15.0456 9.7294 15.0456H11.4519C11.5973 15.0456 11.7152 14.9309 11.7152 14.7894V13.114C11.7152 12.9726 11.5973 12.8579 11.4519 12.8579Z" fill="#FCFCFC"/>
<path d="M14.615 12.8579H12.8925C12.747 12.8579 12.6292 12.9726 12.6292 13.114V14.7894C12.6292 14.9309 12.747 15.0456 12.8925 15.0456H14.615C14.7604 15.0456 14.8783 14.9309 14.8783 14.7894V13.114C14.8783 12.9726 14.7604 12.8579 14.615 12.8579Z" fill="#FCFCFC"/>
<path d="M11.4519 15.9074H9.7294C9.58396 15.9074 9.46606 16.0221 9.46606 16.1635V17.8389C9.46606 17.9804 9.58396 18.0951 9.7294 18.0951H11.4519C11.5973 18.0951 11.7152 17.9804 11.7152 17.8389V16.1635C11.7152 16.0221 11.5973 15.9074 11.4519 15.9074Z" fill="#FCFCFC"/>
<path d="M8.29491 15.9074H6.57241C6.42698 15.9074 6.30908 16.0221 6.30908 16.1635V17.8389C6.30908 17.9804 6.42698 18.0951 6.57241 18.0951H8.29491C8.44034 18.0951 8.55824 17.9804 8.55824 17.8389V16.1635C8.55824 16.0221 8.44034 15.9074 8.29491 15.9074Z" fill="#FCFCFC"/>
<path d="M3.46507 15.9074H5.1411C5.2867 15.9074 5.40443 16.0219 5.40443 16.1635V17.8405C5.40443 17.9821 5.2867 18.0966 5.1411 18.0966H3.46507C3.29468 18.0966 3.15527 17.961 3.15527 17.7953V16.2102C3.15527 16.0445 3.29468 15.9089 3.46507 15.9089V15.9074Z" fill="#FCFCFC"/>
<path d="M1.98583 15.9074H0.263331C0.117897 15.9074 0 16.0221 0 16.1635V17.8389C0 17.9804 0.117897 18.0951 0.263331 18.0951H1.98583C2.13126 18.0951 2.24916 17.9804 2.24916 17.8389V16.1635C2.24916 16.0221 2.13126 15.9074 1.98583 15.9074Z" fill="#FCFCFC"/>
</svg>
